<svg width="70" height="32" viewBox="0 0 70 32" fill="none" xmlns="http://www.w3.org/2000/svg">
<g clip-path="url(#clip0_22_307)">
<path d="M61.0245 29.189V30.4979H62.7222V31.369H58.52V30.4979H60.2356V29.189H58.52V28.3179H62.7222V29.189H61.0245Z" fill="#0068B4"/>
<path d="M60.6356 21.4712C61.9556 21.4712 62.7867 22.4512 62.7867 23.629C62.7867 24.8067 61.9622 25.7867 60.6356 25.7867C59.32 25.7867 58.4667 24.8067 58.4667 23.629C58.4667 22.4512 59.3378 21.4712 60.6356 21.4712ZM62.0111 23.629C62.0111 22.989 61.5933 22.3445 60.6378 22.3445C59.7 22.3445 59.24 22.9956 59.2445 23.6356C59.2511 24.2645 59.7045 24.9134 60.6378 24.9134C61.5733 24.9134 62.0111 24.2623 62.0111 23.629Z" fill="#0068B4"/>
<path d="M60.4933 16.7023C60.6599 16.2423 61.1377 16.0445 61.4488 16.0512C62.3644 16.0512 62.7222 16.769 62.7222 17.5267V18.889H58.5155V17.5134C58.5155 16.7912 58.9333 16.2179 59.6999 16.2179C59.9377 16.2179 60.2911 16.3312 60.4755 16.7023H60.4933ZM60.1533 17.5156C60.1111 16.8823 59.2333 16.8712 59.2333 17.5156V18.049H60.1533V17.5156ZM60.8822 18.049H61.9644V17.5156C61.9644 16.649 60.8822 16.6845 60.8822 17.5156V18.049Z" fill="#0068B4"/>
<path d="M60.6356 9.45557C61.9556 9.45557 62.7867 10.4356 62.7867 11.6133C62.7867 12.7911 61.9622 13.7711 60.6356 13.7711C59.32 13.7711 58.4667 12.7911 58.4667 11.6133C58.4667 10.4356 59.3378 9.45557 60.6356 9.45557ZM62.0111 11.6133C62.0111 10.9733 61.5933 10.3289 60.6378 10.3289C59.7 10.3289 59.24 10.98 59.2445 11.62C59.2511 12.2489 59.7045 12.8978 60.6378 12.8978C61.5733 12.9 62.0111 12.2489 62.0111 11.6133Z" fill="#0068B4"/>
<path d="M66.8978 28.4023C66.5445 28.7357 66.4023 29.1312 66.4134 29.4846C66.4312 30.3223 67.0823 30.7757 67.8178 30.7757C68.5578 30.7757 69.1801 30.3157 69.1801 29.4846C69.1801 29.1134 69.0245 28.6846 68.6245 28.3423L69.0845 27.7512C69.689 28.2468 69.969 28.8023 69.969 29.4846C69.969 30.8779 68.9423 31.6246 67.8178 31.6246C66.6956 31.6246 65.6245 30.8779 65.6245 29.4846C65.6245 28.8757 65.8467 28.3134 66.409 27.8468L66.8978 28.4023Z" fill="#0068B4"/>
<path d="M65.7134 22.8978H66.4445V23.8378H69.8978V24.7089H66.4445V25.6534H65.7156V22.8978H65.7134Z" fill="#0068B4"/>
<path d="M69.8978 19.7178V20.5667H65.6956V19.2222C65.6956 18.2311 66.4133 17.74 67.1178 17.74C67.8289 17.74 68.5156 18.2311 68.5156 19.2155V19.7178H69.8978ZM67.12 18.6C66.8267 18.6 66.4511 18.8155 66.4511 19.2222V19.7178H67.7533V19.2222C67.7533 18.8133 67.4 18.6 67.12 18.6Z" fill="#0068B4"/>
<path d="M67.8111 11.2867C69.1311 11.2867 69.9622 12.2667 69.9622 13.4445C69.9622 14.6223 69.1378 15.6023 67.8111 15.6023C66.4955 15.6023 65.6422 14.6223 65.6422 13.4445C65.6422 12.2667 66.5133 11.2867 67.8111 11.2867ZM69.1867 13.4445C69.1867 12.8045 68.7689 12.1601 67.8133 12.1601C66.8755 12.1601 66.4155 12.8112 66.42 13.4512C66.4267 14.0801 66.88 14.729 67.8133 14.729C68.7511 14.729 69.1867 14.0779 69.1867 13.4445Z" fill="#0068B4"/>
<path d="M66.4555 6.33557V7.94446H67.4133V6.36002H68.1844V7.94446H69.1222V6.33557H69.8933V8.78446H65.7089V6.33557H66.4555Z" fill="#0068B4"/>
<path d="M65.7134 3.00227H67.3689L65.7134 1.57338V0.540042L67.5778 2.12893L69.8978 0.528931V1.53338L68.1289 2.77115L68.3623 3.00449H69.8978V3.87115H65.7156V3.00227H65.7134Z" fill="#0068B4"/>
<path d="M60.3119 0.298442V6.56067H60.9697V0.298442H60.3119Z" fill="#0068B4"/>
<path d="M27.9933 3.02673H23.8489V14.2623H27.9933V3.02673Z" fill="#1DA958"/>
<path d="M27.9933 17.6533H23.8489V31.6155H27.9933V17.6533Z" fill="#E71F61"/>
<path d="M37.2022 0.300049H23.8489V3.02672H37.2022V0.300049Z" fill="#FCBD00"/>
<path d="M32.5977 5.05334C30.0555 5.05334 27.9933 7.11557 27.9933 9.65779C27.9933 12.2 30.0555 14.2622 32.5977 14.2622C35.14 14.2622 37.2022 12.2 37.2022 9.65779C37.2 7.11557 35.14 5.05334 32.5977 5.05334Z" fill="#E71F61"/>
<path d="M52.4799 0.300049H49.3488L41.2688 14.2623H44.3999L52.4799 0.300049Z" fill="#FCBD00"/>
<path d="M19.2289 7.28004C20.2622 6.5756 20.94 5.38893 20.94 4.04449C20.94 1.88004 19.1867 0.126709 17.0222 0.126709V6.59782V7.96226V14.4334C19.1867 14.4334 20.94 12.68 20.94 10.5156C20.9422 9.16893 20.2622 7.98449 19.2289 7.28004Z" fill="#0068B4"/>
<path d="M7.56001 0.300049L15.0422 14.2756H0.0755615L7.56001 0.300049Z" fill="#1DA958"/>
<path d="M27.9933 24.6355L35.8777 17.6533V31.6222L27.9933 24.6355Z" fill="#0068B4"/>
<path d="M38.9733 0.300049L44.6577 8.38005L49.3266 0.300049H38.9733Z" fill="#1DA958"/>
<path d="M45.0845 17.6467L52.569 31.6223H37.6023L45.0845 17.6467Z" fill="#1DA958"/>
</g>
<defs>
<clipPath id="clip0_22_307">
<rect width="70" height="31.7778" fill="white"/>
</clipPath>
</defs>
</svg>
