<svg width="25" height="25" viewBox="0 0 25 25" fill="none" xmlns="http://www.w3.org/2000/svg">
<path d="M25 12.5C25 19.4062 19.4062 25 12.5 25C5.59375 25 0 19.4062 0 12.5C0 5.59375 5.59375 0 12.5 0C19.4062 0 25 5.59375 25 12.5Z" fill="url(#paint0_linear_1_149)"/>
<path d="M10.2083 18.2291C9.80209 18.2291 9.87501 18.0729 9.72917 17.6875L8.54167 13.7708L15.9167 9.16663L16.7813 9.39579L16.0625 11.3541L10.2083 18.2291Z" fill="#C8DAEA"/>
<path d="M10.2083 18.2292C10.5208 18.2292 10.6562 18.0833 10.8333 17.9167C11.1042 17.6563 14.5833 14.2708 14.5833 14.2708L12.4479 13.75L10.4687 15L10.2083 18.125V18.2292Z" fill="#A9C9DD"/>
<path d="M10.4167 15.0417L15.4583 18.7604C16.0312 19.0729 16.4479 18.9167 16.5937 18.2292L18.6458 8.56251C18.8542 7.71875 18.3229 7.34376 17.7708 7.59376L5.72916 12.2396C4.90625 12.5729 4.91666 13.0313 5.58333 13.2292L8.67708 14.1979L15.8333 9.68751C16.1667 9.47917 16.4792 9.59376 16.2292 9.82292L10.4167 15.0417Z" fill="url(#paint1_linear_1_149)"/>
<defs>
<linearGradient id="paint0_linear_1_149" x1="16.1635" y1="3.95104" x2="9.91354" y2="18.5342" gradientUnits="userSpaceOnUse">
<stop stop-color="#37AEE2"/>
<stop offset="1" stop-color="#1E96C8"/>
</linearGradient>
<linearGradient id="paint1_linear_1_149" x1="13.4366" y1="12.8912" x2="16.0407" y2="17.0578" gradientUnits="userSpaceOnUse">
<stop stop-color="#EFF7FC"/>
<stop offset="1" stop-color="white"/>
</linearGradient>
</defs>
</svg>
