<svg width="25" height="25" viewBox="0 0 25 25" fill="none" xmlns="http://www.w3.org/2000/svg">
<path d="M0.571411 24.2878L2.25669 18.1617C1.21698 16.3689 0.670218 14.3348 0.670874 12.2516C0.673601 5.73333 6.00232 0.430298 12.5497 0.430298C15.7274 0.431726 18.7099 1.66289 20.9523 3.89742C23.1952 6.13192 24.4297 9.10206 24.4284 12.2608C24.4257 18.7792 19.0966 24.0827 12.5501 24.0827C12.5497 24.0827 12.5504 24.0827 12.5501 24.0827H12.5448C10.5569 24.0821 8.60349 23.5853 6.86859 22.644L0.571411 24.2878Z" fill="url(#paint0_linear_1_181)"/>
<path fill-rule="evenodd" clip-rule="evenodd" d="M9.47634 7.12845C9.24605 6.61872 9.00358 6.60851 8.78448 6.5996C8.60528 6.59194 8.40012 6.59241 8.19529 6.59241C7.99029 6.59241 7.65718 6.66911 7.37547 6.97539C7.09361 7.28167 6.29926 8.02209 6.29926 9.52797C6.29926 11.034 7.4011 12.4892 7.55468 12.6936C7.70843 12.8977 9.68166 16.0867 12.8067 17.3136C15.4039 18.3332 15.9324 18.1304 16.4961 18.0793C17.0598 18.0283 18.3151 17.3391 18.5714 16.6243C18.8276 15.9097 18.8276 15.2972 18.7507 15.1691C18.6739 15.0416 18.4689 14.9651 18.1614 14.812C17.8539 14.6589 16.3424 13.9184 16.0605 13.8163C15.7786 13.7143 15.5736 13.6633 15.3686 13.9697C15.1637 14.2758 14.5748 14.9651 14.3954 15.1691C14.216 15.3737 14.0367 15.3992 13.7292 15.2461C13.4217 15.0926 12.4315 14.7697 11.2568 13.727C10.3428 12.9158 9.72569 11.9139 9.54632 11.6075C9.36695 11.3014 9.52709 11.1355 9.68133 10.9829C9.81937 10.8458 9.98882 10.6256 10.1426 10.4469C10.296 10.2682 10.3472 10.1406 10.4497 9.93655C10.5522 9.73215 10.501 9.55343 10.4241 9.40038C10.3472 9.24732 9.74972 7.73366 9.47634 7.12845Z" fill="white"/>
<path d="M21.2559 3.59352C18.9325 1.27898 15.8432 0.00364623 12.5518 0.00219727C5.76921 0.00219727 0.249578 5.49543 0.246851 12.2474C0.246052 14.4057 0.812512 16.5125 1.8892 18.3696L0.143555 24.7152L6.66653 23.0124C8.46375 23.9882 10.4873 24.5023 12.5465 24.5031H12.5517H12.5518C19.3332 24.5031 24.8537 19.0089 24.8566 12.2573C24.8577 8.98502 23.5789 5.90822 21.2559 3.59352ZM12.5518 22.4349H12.5478C10.7123 22.434 8.91234 21.9434 7.34237 21.016L6.96873 20.7955L3.09787 21.8058L4.13133 18.05L3.8879 17.6649C2.86405 16.0443 2.32354 14.1713 2.32434 12.2482C2.32658 6.63621 6.91429 2.07058 12.5556 2.07058C15.2875 2.0717 17.8551 3.13179 19.7862 5.05556C21.7171 6.97933 22.7797 9.53668 22.7789 12.2565C22.7765 17.8687 18.1886 22.4349 12.5518 22.4349Z" fill="white"/>
<defs>
<linearGradient id="paint0_linear_1_181" x1="12.4999" y1="24.2878" x2="12.4999" y2="0.430338" gradientUnits="userSpaceOnUse">
<stop stop-color="#20B038"/>
<stop offset="1" stop-color="#60D66A"/>
</linearGradient>
</defs>
</svg>
